<svg width="48" height="48" viewBox="0 0 48 48" fill="none" xmlns="http://www.w3.org/2000/svg">
<path d="M45.6012 24.0031C45.6012 30.0777 43.8395 35.5272 41.0518 39.4274C38.2626 43.3298 34.5173 45.6031 30.505 45.6031C26.3258 45.6031 19.2312 43.1772 13.1428 39.1261C7.01628 35.0496 2.40117 29.6627 2.40117 24.0031C2.40117 18.3435 7.01628 12.9566 13.1428 8.88014C19.2312 4.82901 26.3258 2.40312 30.505 2.40312C34.5173 2.40312 38.2626 4.67643 41.0518 8.57887C43.8395 12.479 45.6012 17.9285 45.6012 24.0031Z" fill="#0354A6" stroke="#0354A6" stroke-width="2.4"/>
<mask id="mask0_17803_215" style="mask-type:alpha" maskUnits="userSpaceOnUse" x="1" y="1" width="46" height="46">
<path d="M45.6012 24.0031C45.6012 30.0777 43.8395 35.5272 41.0518 39.4274C38.2626 43.3298 34.5173 45.6031 30.505 45.6031C26.3258 45.6031 19.2312 43.1772 13.1428 39.1261C7.01628 35.0496 2.40117 29.6627 2.40117 24.0031C2.40117 18.3435 7.01628 12.9566 13.1428 8.88014C19.2312 4.82901 26.3258 2.40312 30.505 2.40312C34.5173 2.40312 38.2626 4.67643 41.0518 8.57887C43.8395 12.479 45.6012 17.9285 45.6012 24.0031Z" fill="#0354A6" stroke="#0354A6" stroke-width="2.4"/>
</mask>
<g mask="url(#mask0_17803_215)">
<path d="M4.50146 33.5C5.27739 32.7975 8.1568 30.2848 8.888 29.6959M29.7439 22.6946C29.7439 22.6946 32.4459 20.419 32.4457 16.9983C32.4456 13.5776 31.6437 11.5141 31.6437 11.5141C25.4127 12.6271 23.1512 15.0587 20.9223 23.81C18.7683 24.3725 16.9356 24.9875 15.263 25.7309M29.7439 22.6946L33.1832 23.4673C36.1102 24.1249 37.8945 26.4475 39.3261 27.9447C36.2606 31.1538 31.4574 32.6882 25.9621 29.2629C25.3673 30.7083 24.6193 31.842 23.8432 32.8499M29.7439 22.6946L25.4837 23.3517M19.0014 44.5C18.771 42.2549 19.4884 39.8081 19.9951 38.4374M15.263 25.7309C19.2005 27.3374 21.7505 28.7624 23.8432 32.8499M15.263 25.7309C12.976 26.7475 10.9884 28.0043 8.888 29.6959M23.8432 32.8499C22.3833 34.7456 20.8236 36.196 19.9951 38.4374M8.888 29.6959C13.838 31.6288 17.2505 33.4874 19.9951 38.4374" stroke="white" stroke-width="1.8"/>
</g>
<path d="M29.4758 15.2969L26.5508 19.9469M33.8258 27.4844L27.6758 26.3969" stroke="white" stroke-width="0.9" stroke-miterlimit="1.55637"/>
</svg>
